<?xml version="1.0" encoding="utf-8"?>
<!-- Generator: Adobe Illustrator 21.1.0, SVG Export Plug-In . SVG Version: 6.00 Build 0)  -->
<svg version="1.1" id="Group_1_1_" xmlns="http://www.w3.org/2000/svg" xmlns:xlink="http://www.w3.org/1999/xlink" x="0px" y="0px"
	 viewBox="0 0 1185 205" style="enable-background:new 0 0 1185 205;" xml:space="preserve">
<style type="text/css">
	.st0{fill:#939598;}
	.st1{fill:#B72126;}
</style>
<g id="Shape_4">
	<g>
		<path class="st0" d="M669.7,163.5H20.2c-10,0-18.2,8.2-18.2,18.3S10.2,200,20.2,200h649.5c10.1,0,18.2-8.2,18.2-18.2
			C688,171.7,679.8,163.5,669.7,163.5z"/>
	</g>
</g>
<g id="Spark">
	<g>
		<path d="M26.3,79.2c-4.5-1.9-8.3-4.6-11.7-7.9c-3.3-3.3-6-7.2-7.9-11.7s-2.9-9.3-2.9-14.5s1-10,2.9-14.5s4.6-8.3,7.9-11.7
			c3.3-3.3,7.2-6,11.7-7.9s9.3-2.9,14.5-2.9h168.8c3.7,0,6.9,1.3,9.5,3.9s3.9,5.7,3.9,9.5c0,3.7-1.3,6.9-3.9,9.5
			c-2.6,2.6-5.7,3.9-9.5,3.9H40.2c-2.8,0-5.2,1-7.4,2.9c-2.1,1.9-3.2,4.4-3.2,7.4c0,2.8,1.1,5.2,3.2,7.2c2.1,2,4.6,3.1,7.4,3.1H194
			c5.2,0,10.1,1,14.6,2.9s8.5,4.6,11.8,7.9c3.3,3.3,6,7.3,7.9,11.8s2.9,9.4,2.9,14.6s-1,10-2.9,14.5s-4.6,8.3-7.9,11.7
			c-3.3,3.3-7.3,5.9-11.8,7.8c-4.5,1.9-9.4,2.8-14.6,2.8H25.4c-3.7,0-6.9-1.3-9.5-3.9s-3.9-5.7-3.9-9.5c0-3.7,1.3-6.9,3.9-9.5
			s5.7-3.9,9.5-3.9h169.7c2.8,0,5.2-1,7.2-2.9s3.1-4.3,3.1-7.1c0-3-1-5.5-3.1-7.5c-2-2-4.5-3.1-7.2-3.1H40.7
			C35.5,82.1,30.7,81.1,26.3,79.2z"/>
		<path d="M259.1,21.4c0-3.7,1.3-6.9,3.9-9.5s5.7-3.9,9.5-3.9H439c5.2,0,10.1,1,14.6,2.9s8.5,4.6,12,7.9c3.4,3.3,6.1,7.2,8.1,11.7
			c1.9,4.5,2.9,9.3,2.9,14.5s-1,10-2.9,14.5s-4.6,8.3-8.1,11.7c-3.4,3.3-7.4,6-12,7.9C449.1,81,444.2,82,439,82H294.4
			c-2.4,0.4-4.5,1.5-6.1,3.3c-1.7,1.9-2.5,4.2-2.5,7V116c0,3.7-1.3,6.9-4,9.5c-2.7,2.6-5.8,3.9-9.3,3.9c-3.7,0-6.9-1.3-9.5-3.9
			c-2.6-2.6-3.9-5.7-3.9-9.5V89.3c0-4.6,0.8-9,2.5-13.2s4-7.8,7.1-10.8c3.1-3.1,6.6-5.5,10.6-7.2c4-1.8,8.4-2.6,13.2-2.6h147.7
			c2.8,0,5.2-1,7.4-2.9c2.1-1.9,3.2-4.4,3.2-7.4c0-2.8-1.1-5.2-3.2-7.2s-4.6-3.1-7.4-3.1H272.4c-3.7,0-6.9-1.3-9.5-3.9
			C260.4,28.3,259.1,25.2,259.1,21.4z"/>
		<path class="st1" d="M514.1,124.4c-2.8,3.3-6.2,5-10.3,5c-3.7,0-6.9-1.3-9.5-3.9c-2.6-2.6-3.9-5.7-3.9-9.5c0-3.3,0.9-6,2.8-8.1
			l67.6-91c3.2-4.3,7.3-7.7,12.5-10.4s10.8-4,16.7-4c5.6,0,10.8,1.2,15.9,3.6c5,2.4,9.1,5.7,12.2,10l67.6,90.4
			c1.1,1.3,2,2.7,2.8,4.3c0.7,1.6,1.1,3.3,1.1,5.1c0,3.7-1.3,6.9-3.9,9.5c-2.6,2.6-5.8,3.9-9.5,3.9c-4.4,0-8-1.8-10.6-5.3
			l-64.8-86.5c-1.3-1.5-2.9-3.1-4.9-4.9c-1.9-1.8-3.9-2.6-6-2.6c-2,0-4,0.9-6,2.6c-1.9,1.8-3.5,3.4-4.6,4.9L514.1,124.4z"/>
		<path d="M911.6,92.2c5.2,3.6,10.5,7.6,15.9,11.8c2,1.5,3.8,3.2,5.3,5.1s2.2,4.2,2.2,6.8c0,3.7-1.3,6.9-3.9,9.5
			c-2.6,2.6-5.8,3.9-9.5,3.9c-3.2,0-6.3-1.3-9.5-3.9c-7.6-5.6-15.4-10.9-23.4-16.1s-16.3-9.8-24.9-13.9c-8.6-4.1-17.6-7.3-26.8-9.7
			c-9.3-2.4-18.9-3.6-28.9-3.6h-55.3c-2.4,0.4-4.5,1.5-6.1,3.3c-1.7,1.9-2.5,4.2-2.5,7V116c0,3.7-1.3,6.9-4,9.5
			c-2.7,2.6-5.8,3.9-9.3,3.9c-3.7,0-6.9-1.3-9.5-3.9c-2.6-2.6-3.9-5.7-3.9-9.5V89.3c0-4.6,0.9-9,2.6-13.2c1.8-4.2,4.1-7.8,7.1-10.8
			c3-3.1,6.5-5.5,10.6-7.2c4.1-1.8,8.5-2.6,13.4-2.6h147.4c2.8,0,5.2-1,7.4-2.9c2.1-1.9,3.2-4.4,3.2-7.4c0-2.8-1.1-5.2-3.2-7.2
			c-2.1-2-4.6-3.1-7.4-3.1H730.8c-3.7,0-6.9-1.3-9.5-3.9s-3.9-5.7-3.9-9.5c0-3.7,1.3-6.9,3.9-9.5c2.6-2.6,5.7-3.9,9.5-3.9h166.6
			c5.2,0,10.1,1,14.6,2.9s8.5,4.6,12,7.9c3.4,3.3,6.1,7.2,8.1,11.7s2.9,9.3,2.9,14.5s-1,10-2.9,14.5s-4.6,8.3-8.1,11.7
			c-3.4,3.3-7.4,6-12,7.9c-4.5,1.9-9.4,2.9-14.6,2.9h-1.1C901.3,85.2,906.4,88.6,911.6,92.2z"/>
		<path d="M989.2,55.4h64.2c9.6,0,19.1-1.3,28.4-3.8s18.3-5.8,27.1-9.9c8.8-4.1,17.2-8.7,25.3-13.9c8.1-5.2,15.8-10.5,23.2-15.9
			c3.2-2.6,6.3-3.9,9.5-3.9c3.7,0,6.9,1.3,9.5,3.9s3.9,5.7,3.9,9.5c0,2.6-0.7,4.9-2.2,6.8s-3.2,3.7-5.3,5.1
			c-4.8,3.7-9.5,7.2-13.9,10.4c-4.5,3.2-8.9,6.3-13.4,9s-9,5.5-13.8,8.1c-4.7,2.6-9.8,5.2-15.2,7.8c5.4,2.6,10.4,5.2,15.2,7.8
			c4.7,2.6,9.3,5.3,13.8,8.1c4.5,2.8,8.9,5.8,13.4,9s9.1,6.7,13.9,10.4c2,1.5,3.8,3.2,5.3,5.1s2.2,4.2,2.2,6.8
			c0,3.7-1.3,6.9-3.9,9.5s-5.8,3.9-9.5,3.9c-3.2,0-6.3-1.3-9.5-3.9c-7.6-5.6-15.4-10.9-23.5-16.1s-16.5-9.8-25.2-13.9
			s-17.7-7.3-27-9.7c-9.3-2.4-18.7-3.6-28.4-3.6h-64.2v34c0,3.7-1.3,6.9-3.9,9.5c-2.6,2.6-5.7,3.9-9.2,3.9c-3.7,0-6.9-1.3-9.5-3.9
			c-2.6-2.6-3.9-5.7-3.9-9.5V21.4c0-3.7,1.3-6.9,3.9-9.5c2.6-2.6,5.7-3.9,9.2-3.9c3.7,0,6.9,1.3,9.5,3.9s3.9,5.7,3.9,9.5L989.2,55.4
			L989.2,55.4z"/>
	</g>
</g>
<g id="Systems">
	<g>
		<path class="st1" d="M717.8,200.2c-0.2-3.4-0.5-6.2-0.8-8.2c2,0.8,3.9,1.4,5.5,1.7s3,0.5,4.2,0.5c1.6,0,2.8-0.2,3.8-0.6
			c0.9-0.4,1.4-1,1.4-1.8c0-0.3,0-0.5-0.1-0.8c-0.1-0.2-0.3-0.5-0.5-0.8s-0.6-0.7-1.1-1l-5.1-4c-1.2-0.9-2-1.6-2.5-2
			c-1-0.8-1.7-1.6-2.3-2.3s-0.9-1.4-1.2-2.2c-0.2-0.7-0.4-1.5-0.4-2.3c0-1,0.2-1.9,0.6-2.9c0.4-0.9,1-1.8,1.8-2.6s1.8-1.5,3.1-2.1
			s2.7-1,4.1-1.2s3-0.3,4.6-0.3c3.1,0,6.4,0.3,10,0.9c0.1,1.1,0.1,2.1,0.2,3.1c0.1,0.9,0.2,2.5,0.5,4.9c-1.7-0.6-3.2-1-4.6-1.2
			c-1.4-0.2-2.6-0.3-3.6-0.3c-1.4,0-2.6,0.2-3.5,0.7s-1.4,1-1.4,1.7c0,0.3,0.1,0.6,0.2,0.9c0.1,0.3,0.4,0.7,0.8,1.1s0.9,0.9,1.6,1.4
			s1.7,1.2,3.1,2.2l2,1.4c0.6,0.4,1.2,0.9,1.9,1.5s1.3,1.2,1.7,1.8s0.9,1.1,1.1,1.6s0.5,1,0.6,1.5s0.2,1,0.2,1.6
			c0,1.5-0.4,2.8-1.2,4.1s-1.9,2.4-3.3,3.2c-1.4,0.8-3,1.4-4.7,1.8c-1.7,0.3-3.5,0.5-5.4,0.5C726,201.3,722.3,200.9,717.8,200.2z"/>
		<path class="st1" d="M793,200.7c0.2-1.3,0.4-3.5,0.7-6.6s0.4-5.3,0.4-6.6l-12.5-19.7c2.7,0,5,0,6.8,0c1.7,0,3.8,0,6.1,0
			c0.7,1.6,1.7,3.5,3,5.8c1.2,2.2,2.3,4.2,3,6c2.1-3.3,3.8-5.8,5-7.6c1.3-1.8,2.2-3.2,2.7-4.1c2.3,0,4.5,0,6.7,0c1.1,0,3.2,0,6.1,0
			l-12,15.6c-2.4,3.1-3.6,4.8-3.6,4.9v0.2v0.2v0.2l-0.2,3.7c-0.1,2.4-0.2,5.1-0.3,8c-2.6,0-4.5,0-6,0
			C797.5,200.6,795.5,200.7,793,200.7z"/>
		<path class="st1" d="M856.9,200.2c-0.2-3.4-0.5-6.2-0.8-8.2c2,0.8,3.9,1.4,5.5,1.7s3,0.5,4.2,0.5c1.6,0,2.8-0.2,3.8-0.6
			c0.9-0.4,1.4-1,1.4-1.8c0-0.3,0-0.5-0.1-0.8c-0.1-0.2-0.3-0.5-0.5-0.8s-0.6-0.7-1.1-1l-5.1-4c-1.2-0.9-2-1.6-2.5-2
			c-1-0.8-1.7-1.6-2.3-2.3s-0.9-1.4-1.2-2.2c-0.2-0.7-0.4-1.5-0.4-2.3c0-1,0.2-1.9,0.6-2.9c0.4-0.9,1-1.8,1.8-2.6s1.8-1.5,3.1-2.1
			s2.7-1,4.1-1.2s3-0.3,4.6-0.3c3.1,0,6.4,0.3,10,0.9c0.1,1.1,0.1,2.1,0.2,3.1c0.1,0.9,0.2,2.5,0.5,4.9c-1.7-0.6-3.2-1-4.6-1.2
			c-1.4-0.2-2.6-0.3-3.6-0.3c-1.4,0-2.6,0.2-3.5,0.7s-1.4,1-1.4,1.7c0,0.3,0.1,0.6,0.2,0.9c0.1,0.3,0.4,0.7,0.8,1.1s0.9,0.9,1.6,1.4
			s1.7,1.2,3.1,2.2l2,1.4c0.6,0.4,1.2,0.9,1.9,1.5s1.3,1.2,1.7,1.8s0.9,1.1,1.1,1.6s0.5,1,0.6,1.5s0.2,1,0.2,1.6
			c0,1.5-0.4,2.8-1.2,4.1s-1.9,2.4-3.3,3.2c-1.4,0.8-3,1.4-4.7,1.8c-1.7,0.3-3.5,0.5-5.4,0.5C865.1,201.3,861.3,200.9,856.9,200.2z"
			/>
		<path class="st1" d="M932.4,200.7c0.9-7.8,1.4-16.5,1.6-25.9l-11.6,0.3l0.1-2.7c0.1-1.4,0.1-3,0.2-4.7c5.2,0,11.2,0,18.1,0h6.7
			h6.5h3.5l-0.2,2.4c-0.1,1.3-0.1,2.3-0.2,3.1s0,1.5,0,1.9c-3.9-0.2-7.1-0.3-9.6-0.3h-1.9c-0.3,2.8-0.5,5.5-0.6,7.9
			c-0.2,3.5-0.4,6.8-0.5,10.1s-0.2,5.9-0.2,7.9c-3,0-4.9,0-5.8,0C937.9,200.6,935.8,200.7,932.4,200.7z"/>
		<path class="st1" d="M995.6,200.7c0.5-4.2,0.8-7.6,1-10.4c0.2-2.8,0.4-6.5,0.6-11.2c0.2-4.6,0.3-7.7,0.3-9.2v-2.1
			c4.3,0,9.5,0,15.6,0c5.6,0,10.6,0,14.9,0l-0.1,0.8c0,0.2-0.1,0.9-0.1,2.1l-0.2,2.6c0,0.6-0.1,1.1-0.1,1.7
			c-3.5-0.1-6.5-0.2-8.8-0.2c-2.6,0-4.4,0-5.3,0s-2.4,0-4.3,0.1l-0.3,5.6c2.1,0,4.7,0.1,7.5,0.1c1,0,3.7-0.1,8.1-0.2
			c-0.2,2.1-0.4,4.5-0.5,7.4c-3.1,0-5.6,0-7.3,0c-2.5,0-5.3,0.1-8.4,0.2l-0.3,5.9h3.1c0.9,0,2.8,0,5.8-0.1l5.6-0.1
			c0.8,0,2.2-0.1,4.2-0.2c-0.2,2.4-0.4,4.8-0.5,7.4c-4.4,0-9.3,0-14.6,0h-12L995.6,200.7z"/>
		<path class="st1" d="M1067.9,200.7l0.7-4.9l1.7-16.9l0.8-11.2c3.4,0,6,0,7.9,0c1.6,0,4,0,7.3,0c0.2,1.4,0.4,2.4,0.6,3.2
			c0.2,0.7,0.6,2.1,1.2,4.2s1.2,3.9,1.6,5.4s1,4.1,1.8,7.8c0.8-2.5,1.5-4.7,2.2-6.5s1.5-3.9,2.5-6.2s1.6-3.8,1.9-4.6
			s0.6-1.8,1.1-3.3c2.7,0,5.4,0,8,0c1.8,0,4.3,0,7.4,0c-0.3,5.4-0.6,10.1-0.7,14c-0.2,7.6-0.4,12.9-0.4,15.8c0,0.6,0,1.7,0.1,3.2
			c-2.4,0-4.1,0-5,0c-1.4,0-3.1,0-5.2,0c0.1-1.5,0.3-4.9,0.6-10.4c0.2-5.5,0.3-8.9,0.3-10.5c0-0.7,0-1.6-0.1-2.8l-3.6,9.8l-5.1,13.7
			c-2.4,0-4,0-4.9,0c-1.1,0-2.9,0-5.2,0l-3.4-13.3l-2-7.1c-0.1-0.3-0.2-0.6-0.2-1c-0.1-0.4-0.2-1.1-0.4-2.1l-0.7,6.7l-0.9,13.7
			l-0.1,3.1c-2.5,0-4.1,0-4.8,0C1071.9,200.6,1070.3,200.7,1067.9,200.7z"/>
		<path class="st1" d="M1155.8,200.2c-0.2-3.4-0.5-6.2-0.8-8.2c2,0.8,3.9,1.4,5.5,1.7s3,0.5,4.2,0.5c1.6,0,2.8-0.2,3.8-0.6
			c0.9-0.4,1.4-1,1.4-1.8c0-0.3,0-0.5-0.1-0.8c-0.1-0.2-0.3-0.5-0.5-0.8s-0.6-0.7-1.1-1l-5.1-4c-1.2-0.9-2-1.6-2.5-2
			c-1-0.8-1.7-1.6-2.3-2.3s-0.9-1.4-1.2-2.2c-0.2-0.7-0.4-1.5-0.4-2.3c0-1,0.2-1.9,0.6-2.9c0.4-0.9,1-1.8,1.8-2.6s1.8-1.5,3.1-2.1
			s2.7-1,4.1-1.2s3-0.3,4.6-0.3c3.1,0,6.4,0.3,10,0.9c0.1,1.1,0.1,2.1,0.2,3.1c0.1,0.9,0.2,2.5,0.5,4.9c-1.7-0.6-3.2-1-4.6-1.2
			s-2.6-0.3-3.6-0.3c-1.4,0-2.6,0.2-3.5,0.7s-1.4,1-1.4,1.7c0,0.3,0.1,0.6,0.2,0.9c0.1,0.3,0.4,0.7,0.8,1.1s0.9,0.9,1.6,1.4
			s1.7,1.2,3.1,2.2l2,1.4c0.6,0.4,1.2,0.9,1.9,1.5c0.7,0.6,1.3,1.2,1.7,1.8s0.9,1.1,1.1,1.6s0.5,1,0.6,1.5s0.2,1,0.2,1.6
			c0,1.5-0.4,2.8-1.2,4.1c-0.8,1.3-1.9,2.4-3.3,3.2s-3,1.4-4.7,1.8c-1.7,0.3-3.5,0.5-5.4,0.5C1164,201.3,1160.2,200.9,1155.8,200.2z
			"/>
	</g>
</g>
</svg>
